<svg width="70" height="70" viewBox="0 0 70 70" fill="none" xmlns="http://www.w3.org/2000/svg">
<path d="M45.9346 45.9375C45.2833 43.5031 43.8705 41.3407 41.9026 39.7665C39.9348 38.1922 37.5151 37.2885 34.9971 37.1875C32.4791 37.2885 30.0593 38.1922 28.0915 39.7665C26.1237 41.3407 24.7109 43.5031 24.0596 45.9375M48.125 12.25C52.1204 14.5606 55.4394 17.8795 57.75 21.875M57.75 48.125C55.4394 52.1205 52.1204 55.4394 48.125 57.75M21.875 57.75C17.8795 55.4394 14.5606 52.1205 12.25 48.125M12.25 21.875C14.5606 17.8795 17.8795 14.5606 21.875 12.25M28.4346 28.4375C28.4162 29.3107 28.5723 30.1789 28.8937 30.991C29.2152 31.8032 29.6955 32.543 30.3066 33.1671C30.9176 33.7912 31.6472 34.287 32.4523 34.6255C33.2575 34.964 34.1222 35.1383 34.9956 35.1383C35.8691 35.1383 36.7337 34.964 37.5389 34.6255C38.3441 34.287 39.0736 33.7912 39.6847 33.1671C40.2957 32.543 40.7761 31.8032 41.0975 30.991C41.419 30.1789 41.5751 29.3107 41.5567 28.4375C41.5205 26.7214 40.8133 25.0877 39.5868 23.8868C38.3603 22.6859 36.7121 22.0133 34.9956 22.0133C33.2791 22.0133 31.6309 22.6859 30.4044 23.8868C29.1779 25.0877 28.4708 26.7214 28.4346 28.4375ZM29.5283 7.65625C29.5283 9.10665 30.1045 10.4977 31.1301 11.5232C32.1557 12.5488 33.5467 13.125 34.9971 13.125C36.4475 13.125 37.8385 12.5488 38.8641 11.5232C39.8897 10.4977 40.4658 9.10665 40.4658 7.65625C40.4658 6.20585 39.8897 4.81485 38.8641 3.78926C37.8385 2.76367 36.4475 2.1875 34.9971 2.1875C33.5467 2.1875 32.1557 2.76367 31.1301 3.78926C30.1045 4.81485 29.5283 6.20585 29.5283 7.65625ZM56.8721 35C56.8721 36.4504 57.4482 37.8414 58.4738 38.867C59.4994 39.8926 60.8904 40.4688 62.3408 40.4688C63.7912 40.4688 65.1822 39.8926 66.2078 38.867C67.2334 37.8414 67.8096 36.4504 67.8096 35C67.8096 33.5496 67.2334 32.1586 66.2078 31.133C65.1822 30.1074 63.7912 29.5313 62.3408 29.5313C60.8904 29.5313 59.4994 30.1074 58.4738 31.133C57.4482 32.1586 56.8721 33.5496 56.8721 35ZM29.5283 62.3438C29.5283 63.7942 30.1045 65.1852 31.1301 66.2107C32.1557 67.2363 33.5467 67.8125 34.9971 67.8125C36.4475 67.8125 37.8385 67.2363 38.8641 66.2107C39.8897 65.1852 40.4658 63.7942 40.4658 62.3438C40.4658 60.8933 39.8897 59.5024 38.8641 58.4768C37.8385 57.4512 36.4475 56.875 34.9971 56.875C33.5467 56.875 32.1557 57.4512 31.1301 58.4768C30.1045 59.5024 29.5283 60.8933 29.5283 62.3438ZM2.18457 35C2.18457 36.4504 2.76074 37.8414 3.78633 38.867C4.81192 39.8926 6.20292 40.4688 7.65332 40.4688C9.10372 40.4688 10.4947 39.8926 11.5203 38.867C12.5459 37.8414 13.1221 36.4504 13.1221 35C13.1221 33.5496 12.5459 32.1586 11.5203 31.133C10.4947 30.1074 9.10372 29.5313 7.65332 29.5313C6.20292 29.5313 4.81192 30.1074 3.78633 31.133C2.76074 32.1586 2.18457 33.5496 2.18457 35Z" stroke="#276F71" stroke-width="4.375" stroke-linecap="round" stroke-linejoin="round"/>
</svg>
