<svg width="21" height="21" viewBox="0 0 21 21" fill="none" xmlns="http://www.w3.org/2000/svg">
<path d="M7.01139 2.23999H14.0203C16.6904 2.23999 18.8598 4.40943 18.8598 7.0795V14.0885C18.8598 15.372 18.35 16.6029 17.4424 17.5105C16.5348 18.4181 15.3039 18.928 14.0203 18.928H7.01139C4.34131 18.928 2.17188 16.7585 2.17188 14.0885V7.0795C2.17188 5.79598 2.68175 4.56503 3.58934 3.65745C4.49692 2.74987 5.72787 2.23999 7.01139 2.23999ZM6.84451 3.90879C6.04784 3.90879 5.2838 4.22526 4.72048 4.78859C4.15715 5.35192 3.84067 6.11596 3.84067 6.91262V14.2553C3.84067 15.9158 5.18405 17.2592 6.84451 17.2592H14.1872C14.9839 17.2592 15.7479 16.9427 16.3112 16.3794C16.8746 15.816 17.191 15.052 17.191 14.2553V6.91262C17.191 5.25217 15.8477 3.90879 14.1872 3.90879H6.84451ZM14.8965 5.16039C15.1731 5.16039 15.4384 5.27027 15.634 5.46587C15.8296 5.66147 15.9395 5.92676 15.9395 6.20338C15.9395 6.48 15.8296 6.74529 15.634 6.94089C15.4384 7.13649 15.1731 7.24638 14.8965 7.24638C14.6198 7.24638 14.3545 7.13649 14.1589 6.94089C13.9633 6.74529 13.8535 6.48 13.8535 6.20338C13.8535 5.92676 13.9633 5.66147 14.1589 5.46587C14.3545 5.27027 14.6198 5.16039 14.8965 5.16039ZM10.5159 6.41198C11.6223 6.41198 12.6835 6.85153 13.4659 7.63393C14.2483 8.41633 14.6879 9.47749 14.6879 10.584C14.6879 11.6905 14.2483 12.7516 13.4659 13.534C12.6835 14.3164 11.6223 14.756 10.5159 14.756C9.40938 14.756 8.34822 14.3164 7.56582 13.534C6.78342 12.7516 6.34387 11.6905 6.34387 10.584C6.34387 9.47749 6.78342 8.41633 7.56582 7.63393C8.34822 6.85153 9.40938 6.41198 10.5159 6.41198ZM10.5159 8.08078C9.85197 8.08078 9.21527 8.34451 8.74583 8.81395C8.27639 9.28339 8.01266 9.92009 8.01266 10.584C8.01266 11.2479 8.27639 11.8846 8.74583 12.354C9.21527 12.8234 9.85197 13.0872 10.5159 13.0872C11.1797 13.0872 11.8164 12.8234 12.2859 12.354C12.7553 11.8846 13.0191 11.2479 13.0191 10.584C13.0191 9.92009 12.7553 9.28339 12.2859 8.81395C11.8164 8.34451 11.1797 8.08078 10.5159 8.08078Z" fill="white"/>
</svg>
