<svg width="275" height="56" viewBox="0 0 275 56" fill="none" xmlns="http://www.w3.org/2000/svg">
<path d="M18.762 0.523355C18.762 0.523355 21.7922 6.57467 26.9361 6.57467C32.4536 6.57467 39.244 1.91932 43.658 5.08265C48.072 8.24599 49.7711 15.4179 47.745 21.9303C47.745 21.9303 52.5503 16.1671 50.46 8.34204C48.5566 1.35581 45.2578 0.881951 43.296 0.523355C41.7896 0.2416 36.167 1.26616 29.4584 3.31529C23.538 5.12107 18.762 0.523355 18.762 0.523355Z" fill="white"/>
<path d="M5.40894 34.0073C5.40894 34.0073 9.31499 35.1215 10.1616 40.4621C11.0082 45.8026 9.93389 51.7515 15.3697 52.315C20.5077 52.84 20.5194 39.5079 25.2136 39.8986C24.3265 42.3239 23.5891 44.8119 23.0066 47.3458C21.7046 52.808 19.4451 55.1069 14.9726 55.1069C10.6287 55.1069 8.46255 50.887 8.07136 46.0459C7.68017 41.2049 7.89036 36.9209 5.40894 34.0073Z" fill="white"/>
<path d="M51.0088 24.1139C50.1681 24.0306 48.6383 23.8513 46.6824 23.4735C38.7981 21.685 31.5071 17.574 25.5932 11.5822C22.7556 8.63661 18.4 0.241608 9.85216 0.241608C0.767216 0.241608 1.10586 14.6751 1.10586 14.6751C1.03579 20.1501 2.27359 25.4266 4.02518 30.5046C4.74918 30.1012 5.55491 29.6978 6.43071 29.3007C4.23538 23.1021 2.43707 15.7765 4.73166 9.84687C5.89939 6.8052 8.11808 4.25661 11.2943 4.15415C14.6807 4.03889 17.9854 7.35591 20.315 9.64836C22.0141 11.3517 23.573 13.2215 25.2545 14.9505C30.6086 20.4319 38.5842 24.3252 46.0693 24.6902C46.8517 24.7286 47.6224 24.7286 48.4048 24.6902C49.2638 24.6474 50.1186 24.534 50.9621 24.3508L51.6803 24.1651L51.0088 24.1139Z" fill="#9AE0E2"/>
<path d="M46.4255 26.4448C45.4855 29.4608 43.8857 34.7117 43.6814 35.4097C42.91 38.0144 42.3493 40.6886 42.0057 43.4013C41.6203 46.4045 41.7546 49.8624 38.9053 51.4697C38.1945 51.8917 37.4083 52.1384 36.6015 52.1926C35.7947 52.2468 34.9869 52.1072 34.2344 51.7834C32.7397 51.015 32.2143 49.6639 31.7355 48.0694C31.1866 46.2508 30.8597 44.3554 30.2758 42.5496C29.8281 41.1712 29.2406 39.8523 28.5242 38.6178L28.4366 38.477C28.2148 38.0927 27.9754 37.7213 27.7243 37.3627L27.6017 37.2027L27.5667 37.1642C25.8978 34.8716 23.812 32.9853 21.4419 31.6252L20.9281 31.3306C18.9042 30.2628 16.704 29.6556 14.4603 29.5455C12.2165 29.4354 9.9757 29.8249 7.8729 30.6903L7.42916 30.8696C6.19002 31.3755 4.99262 31.9968 3.85007 32.7266C2.78193 33.3992 1.78688 34.2027 0.884033 35.1215C1.92215 34.4673 2.99884 33.8898 4.10697 33.3926C5.48277 32.7573 6.91239 32.2726 8.37503 31.9454C10.9108 31.3508 13.5338 31.3639 16.0645 31.9838C19.0941 32.8034 21.8732 34.4842 24.1219 36.8569C24.3204 37.0554 24.5131 37.2667 24.7057 37.4972C25.3842 38.2559 25.9585 39.1187 26.4106 40.0586C27.0314 41.3408 27.4798 42.7147 27.7418 44.1377C28.2673 46.904 28.8103 49.9969 30.5561 52.2573C32.1734 54.3513 34.6431 55.1773 37.0895 55.1069C43.7456 54.9212 43.9149 47.8453 44.7907 41.6595C45.2053 38.7075 47.71 33.431 49.5492 26.3679C48.6092 26.4384 47.5524 26.496 46.4255 26.4448Z" fill="#9AE0E2"/>
<path d="M25.3655 8.59818C25.3655 8.59818 26.6675 10.0198 27.9929 11.2172C28.266 11.4637 28.6055 11.6047 28.959 11.6186C29.3125 11.6325 29.6603 11.5185 29.9488 11.2941C31.9573 9.7252 36.8676 6.58108 41.1707 9.20652C41.1707 9.20652 38.1521 5.50529 34.503 6.8116C30.8538 8.11792 27.9053 9.55231 25.3655 8.59818Z" fill="#D3D3F2"/>
<path d="M7.66855 26.1502C7.66855 26.1502 4.38723 11.5246 8.72535 8.16275C13.0635 4.80091 18.9839 11.5246 18.9839 11.5246C18.9839 11.5246 8.72535 7.23424 7.66855 26.1502Z" fill="#D3D3F2"/>
<path d="M39.0922 43.9071C40.4526 40.1419 41.2117 37.1706 41.2117 37.1706C41.2117 37.1706 41.632 49.0107 37.615 49.4782C33.598 49.9456 32.7456 45.0662 32.7456 45.0662C32.7456 45.0662 37.2939 48.9083 39.0922 43.9071Z" fill="#D3D3F2"/>
<path d="M23.0709 38.0223C23.0709 38.0223 18.4 31.5804 8.78369 34.4555C8.78369 34.4555 19.0189 35.4993 21.5587 40.7182C21.5528 40.7118 22.271 38.7139 23.0709 38.0223Z" fill="#D3D3F2"/>
<path d="M77.3115 35.8361V13.098H83.7284C86.0534 13.098 88.0644 13.4933 89.7617 14.2838C91.4589 15.0742 92.7725 16.3065 93.7025 17.9804C94.6557 19.6311 95.1323 21.7585 95.1323 24.3624C95.1323 26.9664 94.6673 29.1169 93.7373 30.8142C92.8073 32.5114 91.5054 33.7785 89.8314 34.6155C88.1807 35.4292 86.2394 35.8361 84.0074 35.8361H77.3115ZM82.4381 31.686H83.4145C84.7165 31.686 85.8441 31.4535 86.7973 30.9885C87.7738 30.5235 88.5294 29.7563 89.0642 28.6868C89.5989 27.6174 89.8663 26.1759 89.8663 24.3624C89.8663 22.549 89.5989 21.1307 89.0642 20.1078C88.5294 19.0615 87.7738 18.3292 86.7973 17.9107C85.8441 17.4689 84.7165 17.2481 83.4145 17.2481H82.4381V31.686ZM99.4485 35.8361V13.098H113.677V17.4224H104.575V21.991H112.317V26.2805H104.575V31.5116H114.026V35.8361H99.4485ZM118.554 35.8361V13.098H123.82L129.749 24.3973L131.981 29.4192H132.121C132.028 28.2102 131.9 26.8617 131.737 25.3738C131.574 23.8858 131.493 22.4676 131.493 21.1191V13.098H136.375V35.8361H131.109L125.181 24.5019L122.949 19.5498H122.809C122.925 20.8052 123.053 22.1537 123.193 23.5952C123.355 25.0367 123.437 26.4316 123.437 27.7801V35.8361H118.554ZM146.176 35.8361V17.4224H139.934V13.098H157.58V17.4224H151.338V35.8361H146.176ZM165.065 24.3275L164.507 26.42H169.355L168.831 24.3275C168.529 23.1883 168.215 21.9793 167.89 20.7006C167.588 19.4219 167.285 18.1897 166.983 17.0039H166.844C166.565 18.2129 166.274 19.4568 165.972 20.7355C165.693 21.991 165.391 23.1883 165.065 24.3275ZM156.835 35.8361L163.949 13.098H170.122L177.236 35.8361H171.796L170.401 30.4305H163.461L162.066 35.8361H156.835ZM179.721 35.8361V13.098H184.847V31.5116H193.845V35.8361H179.721Z" fill="white"/>
<path d="M205.997 36.2546C204.09 36.2546 202.335 35.8128 200.731 34.9293C199.126 34.0458 197.836 32.7439 196.859 31.0234C195.906 29.2797 195.43 27.1407 195.43 24.6065C195.43 22.0956 195.918 19.9566 196.894 18.1897C197.894 16.3995 199.208 15.0394 200.835 14.1094C202.486 13.1562 204.264 12.6795 206.171 12.6795C207.636 12.6795 208.949 12.9818 210.112 13.5863C211.274 14.1675 212.239 14.8534 213.006 15.6439L210.286 18.922C209.705 18.3873 209.089 17.9572 208.438 17.6317C207.81 17.2829 207.089 17.1086 206.276 17.1086C205.253 17.1086 204.311 17.3992 203.451 17.9804C202.614 18.5617 201.939 19.3986 201.428 20.4914C200.94 21.5841 200.696 22.8977 200.696 24.4322C200.696 26.7571 201.196 28.5706 202.195 29.8726C203.195 31.1745 204.532 31.8255 206.206 31.8255C207.136 31.8255 207.961 31.6163 208.682 31.1978C209.426 30.7793 210.077 30.2794 210.635 29.6982L213.355 32.9066C211.449 35.1386 208.996 36.2546 205.997 36.2546ZM222.144 24.3275L221.586 26.42H226.434L225.911 24.3275C225.609 23.1883 225.295 21.9793 224.969 20.7006C224.667 19.4219 224.365 18.1897 224.063 17.0039H223.923C223.644 18.2129 223.353 19.4568 223.051 20.7355C222.772 21.991 222.47 23.1883 222.144 24.3275ZM213.914 35.8361L221.028 13.098H227.201L234.316 35.8361H228.875L227.48 30.4305H220.54L219.145 35.8361H213.914ZM236.8 35.8361V13.098H244.996C246.6 13.098 248.064 13.3189 249.39 13.7606C250.715 14.1791 251.773 14.8999 252.563 15.9228C253.354 16.9458 253.749 18.364 253.749 20.1775C253.749 21.8515 253.377 23.2348 252.633 24.3275C251.912 25.397 250.936 26.1991 249.704 26.7339L254.865 35.8361H249.111L244.751 27.6406H241.927V35.8361H236.8ZM241.927 23.5603H244.577C245.926 23.5603 246.948 23.2813 247.646 22.7233C248.367 22.1421 248.727 21.2935 248.727 20.1775C248.727 19.0615 248.367 18.2827 247.646 17.8409C246.948 17.3992 245.926 17.1783 244.577 17.1783H241.927V23.5603ZM258.188 35.8361V13.098H272.417V17.4224H263.314V21.991H271.056V26.2805H263.314V31.5116H272.765V35.8361H258.188Z" fill="#9AE0E2"/>
</svg>
