<svg width="284" height="178" viewBox="0 0 284 178" fill="none" xmlns="http://www.w3.org/2000/svg">
<path d="M128.566 0.609647C128.566 0.609647 134.044 11.5479 143.342 11.5479C153.315 11.5479 165.589 3.13297 173.568 8.85096C181.547 14.5689 184.618 27.5328 180.956 39.3044C180.956 39.3044 189.642 28.8871 185.863 14.7426C182.423 2.11438 176.46 1.25784 172.914 0.609647C170.191 0.100353 160.027 1.95233 147.901 5.65629C137.199 8.92041 128.566 0.609647 128.566 0.609647Z" fill="white"/>
<path d="M104.43 61.1345C104.43 61.1345 111.49 63.1486 113.021 72.802C114.551 82.4554 112.609 93.2085 122.435 94.2271C131.722 95.1762 131.743 71.0773 140.228 71.7834C138.625 76.1673 137.292 80.6647 136.239 85.245C133.885 95.1183 129.801 99.2737 121.717 99.2737C113.865 99.2737 109.949 91.6459 109.242 82.8953C108.535 74.1447 108.915 66.4011 104.43 61.1345Z" fill="white"/>
<path d="M186.855 43.2515C185.336 43.101 182.57 42.7769 179.035 42.094C164.783 38.8611 151.604 31.4301 140.914 20.5994C135.785 15.275 127.912 0.100342 112.461 0.100342C96.0395 0.100342 96.6516 26.1901 96.6516 26.1901C96.525 36.0866 98.7624 45.6243 101.929 54.8032C103.237 54.074 104.694 53.3448 106.277 52.6271C102.308 41.4226 99.0579 28.181 103.206 17.4627C105.316 11.9646 109.327 7.35779 115.068 7.17259C121.189 6.96424 127.163 12.96 131.374 17.1038C134.445 20.1827 137.263 23.5626 140.302 26.6878C149.98 36.5959 164.397 43.6334 177.927 44.2932C179.341 44.3627 180.734 44.3627 182.148 44.2932C183.701 44.2159 185.246 44.0108 186.771 43.6797L188.069 43.3441L186.855 43.2515Z" fill="#9AE0E2"/>
<path d="M178.571 47.4646C176.871 52.9163 173.98 62.4077 173.61 63.6694C172.216 68.3777 171.202 73.2115 170.581 78.1148C169.885 83.5435 170.127 89.7939 164.977 92.6992C163.692 93.462 162.271 93.908 160.813 94.0059C159.354 94.1039 157.894 93.8515 156.534 93.2664C153.832 91.8774 152.882 89.4351 152.017 86.5529C151.025 83.2657 150.434 79.8395 149.379 76.5754C148.569 74.0838 147.507 71.6998 146.212 69.4684L146.054 69.2138C145.653 68.5193 145.22 67.8479 144.767 67.1997L144.545 66.9104L144.482 66.8409C141.465 62.6969 137.695 59.2871 133.411 56.8287L132.482 56.2962C128.823 54.366 124.846 53.2683 120.791 53.0694C116.735 52.8705 112.684 53.5744 108.883 55.1387L108.081 55.4628C105.842 56.3773 103.677 57.5003 101.612 58.8195C99.6811 60.0353 97.8825 61.4877 96.2505 63.1485C98.127 61.9661 100.073 60.922 102.076 60.0233C104.563 58.8751 107.147 57.9988 109.791 57.4074C114.375 56.3326 119.116 56.3563 123.69 57.4768C129.167 58.9584 134.19 61.9966 138.255 66.2853C138.614 66.6441 138.962 67.0261 139.31 67.4428C140.537 68.8142 141.575 70.3738 142.392 72.0728C143.514 74.3903 144.325 76.8738 144.798 79.446C145.748 84.4463 146.73 90.037 149.885 94.1229C152.809 97.9079 157.273 99.401 161.695 99.2737C173.726 98.938 174.032 86.1478 175.615 74.9665C176.365 69.6305 180.892 60.0928 184.217 47.3257C182.518 47.453 180.607 47.5572 178.571 47.4646Z" fill="#9AE0E2"/>
<path d="M140.503 15.2053C140.503 15.2053 142.856 17.7749 145.252 19.9394C145.746 20.3849 146.359 20.6399 146.998 20.665C147.637 20.6901 148.266 20.4839 148.787 20.0783C152.418 17.2425 161.294 11.5592 169.072 16.3049C169.072 16.3049 163.616 9.61464 157.019 11.9759C150.423 14.3372 145.094 16.93 140.503 15.2053Z" fill="#D3D3F2"/>
<path d="M108.514 46.9319C108.514 46.9319 102.583 20.4949 110.424 14.4181C118.266 8.34125 128.967 20.4949 128.967 20.4949C128.967 20.4949 110.424 12.7397 108.514 46.9319Z" fill="#D3D3F2"/>
<path d="M165.315 79.0291C167.774 72.223 169.146 66.8523 169.146 66.8523C169.146 66.8523 169.906 88.2542 162.645 89.0992C155.384 89.9442 153.843 81.1241 153.843 81.1241C153.843 81.1241 162.064 88.069 165.315 79.0291Z" fill="#D3D3F2"/>
<path d="M136.355 68.3919C136.355 68.3919 127.912 56.7476 110.53 61.9447C110.53 61.9447 129.031 63.8314 133.622 73.2649C133.611 73.2533 134.909 69.642 136.355 68.3919Z" fill="#D3D3F2"/>
<path d="M4.65255 157.855V125.726H13.7197C17.0049 125.726 19.8466 126.284 22.2447 127.401C24.6429 128.518 26.4991 130.259 27.8131 132.624C29.1601 134.957 29.8335 137.963 29.8335 141.642C29.8335 145.322 29.1765 148.361 27.8624 150.759C26.5483 153.157 24.7086 154.947 22.3433 156.13C20.0108 157.28 17.2677 157.855 14.1139 157.855H4.65255ZM11.8964 151.991H13.2762C15.1159 151.991 16.7092 151.662 18.0561 151.005C19.4359 150.348 20.5036 149.264 21.2592 147.753C22.0148 146.242 22.3926 144.205 22.3926 141.642C22.3926 139.08 22.0148 137.076 21.2592 135.63C20.5036 134.152 19.4359 133.117 18.0561 132.526C16.7092 131.902 15.1159 131.59 13.2762 131.59H11.8964V151.991ZM35.9324 157.855V125.726H56.0378V131.836H43.1763V138.291H54.116V144.353H43.1763V151.744H56.5306V157.855H35.9324ZM62.9294 157.855V125.726H70.3704L78.7476 141.692L81.9014 148.788H82.0985C81.9671 147.079 81.7864 145.174 81.5564 143.071C81.3265 140.969 81.2115 138.965 81.2115 137.059V125.726H88.1104V157.855H80.6694L72.2922 141.839L69.1384 134.842H68.9413C69.1056 136.616 69.2862 138.521 69.4834 140.558C69.7133 142.595 69.8283 144.566 69.8283 146.472V157.855H62.9294ZM101.959 157.855V131.836H93.1387V125.726H118.073V131.836H109.253V157.855H101.959ZM128.65 141.593L127.861 144.55H134.711L133.972 141.593C133.544 139.983 133.101 138.275 132.641 136.468C132.214 134.661 131.787 132.92 131.36 131.245H131.163C130.768 132.953 130.358 134.711 129.931 136.517C129.537 138.291 129.109 139.983 128.65 141.593ZM117.02 157.855L127.073 125.726H135.795L145.848 157.855H138.16L136.189 150.217H126.383L124.412 157.855H117.02ZM149.358 157.855V125.726H156.602V151.744H169.316V157.855H149.358Z" fill="white"/>
<path d="M186.486 158.446C183.792 158.446 181.312 157.822 179.045 156.574C176.779 155.325 174.955 153.485 173.576 151.054C172.229 148.59 171.555 145.568 171.555 141.987C171.555 138.439 172.245 135.417 173.625 132.92C175.037 130.391 176.894 128.469 179.193 127.155C181.526 125.808 184.039 125.134 186.733 125.134C188.802 125.134 190.659 125.561 192.301 126.415C193.944 127.237 195.307 128.206 196.391 129.323L192.548 133.955C191.726 133.199 190.856 132.592 189.936 132.132C189.049 131.639 188.03 131.393 186.881 131.393C185.435 131.393 184.105 131.803 182.889 132.624C181.706 133.446 180.754 134.628 180.031 136.172C179.341 137.717 178.996 139.573 178.996 141.741C178.996 145.026 179.702 147.589 181.115 149.428C182.528 151.268 184.417 152.188 186.782 152.188C188.096 152.188 189.262 151.892 190.281 151.301C191.332 150.709 192.252 150.003 193.04 149.182L196.884 153.715C194.19 156.869 190.724 158.446 186.486 158.446ZM209.304 141.593L208.515 144.55H215.365L214.626 141.593C214.198 139.983 213.755 138.275 213.295 136.468C212.868 134.661 212.441 132.92 212.014 131.245H211.817C211.422 132.953 211.012 134.711 210.585 136.517C210.191 138.291 209.763 139.983 209.304 141.593ZM197.674 157.855L207.727 125.726H216.449L226.502 157.855H218.814L216.843 150.217H207.037L205.066 157.855H197.674ZM230.012 157.855V125.726H241.592C243.859 125.726 245.929 126.038 247.801 126.662C249.674 127.253 251.169 128.272 252.286 129.717C253.403 131.163 253.961 133.167 253.961 135.729C253.961 138.094 253.436 140.049 252.384 141.593C251.366 143.104 249.986 144.238 248.245 144.993L255.538 157.855H247.407L241.248 146.274H237.256V157.855H230.012ZM237.256 140.509H241.001C242.907 140.509 244.352 140.115 245.338 139.326C246.356 138.505 246.865 137.306 246.865 135.729C246.865 134.152 246.356 133.052 245.338 132.427C244.352 131.803 242.907 131.491 241.001 131.491H237.256V140.509ZM260.233 157.855V125.726H280.339V131.836H267.477V138.291H278.417V144.353H267.477V151.744H280.832V157.855H260.233Z" fill="#9AE0E2"/>
</svg>
