<svg width="73" height="73" viewBox="0 0 73 73" fill="none" xmlns="http://www.w3.org/2000/svg">
<path d="M9.8855 15.2083C9.8855 12.9899 10.7668 10.8623 12.3354 9.29368C13.9041 7.72502 16.0317 6.84375 18.2501 6.84375H48.6667C50.8852 6.84375 53.0127 7.72502 54.5814 9.29368C56.1501 10.8623 57.0313 12.9899 57.0313 15.2083V31.9375C57.0313 32.5425 56.791 33.1228 56.3632 33.5506C55.9354 33.9784 55.3551 34.2188 54.7501 34.2188C54.1451 34.2188 53.5648 33.9784 53.137 33.5506C52.7092 33.1228 52.4688 32.5425 52.4688 31.9375V15.2083C52.4688 13.1096 50.7655 11.4062 48.6667 11.4062H18.2501C16.1513 11.4062 14.448 13.1096 14.448 15.2083V57.7917C14.448 59.8904 16.1513 61.5938 18.2501 61.5938H41.0626C41.6676 61.5938 42.2478 61.8341 42.6757 62.2619C43.1035 62.6897 43.3438 63.27 43.3438 63.875C43.3438 64.48 43.1035 65.0603 42.6757 65.4881C42.2478 65.9159 41.6676 66.1562 41.0626 66.1562H18.2501C16.0317 66.1562 13.9041 65.275 12.3354 63.7063C10.7668 62.1377 9.8855 60.0101 9.8855 57.7917V15.2083Z" fill="white"/>
<path d="M54.75 40.3021C55.355 40.3021 55.9353 40.5425 56.3631 40.9703C56.7909 41.3981 57.0312 41.9783 57.0312 42.5834V43.8548C60.155 43.9704 63.1146 46.2729 63.1146 49.6796C63.1146 50.2846 62.8742 50.8649 62.4464 51.2927C62.0186 51.7205 61.4384 51.9608 60.8333 51.9608C60.2283 51.9608 59.6481 51.7205 59.2202 51.2927C58.7924 50.8649 58.5521 50.2846 58.5521 49.6796C58.5521 49.2477 58.0593 48.4142 56.7849 48.4142H52.2041C51.8405 48.4045 51.4855 48.5254 51.2034 48.7549C50.9966 48.9374 50.9479 49.1108 50.9479 49.2233C50.9433 49.3763 50.9617 49.5291 51.0027 49.6765C51.043 49.7064 51.0857 49.7328 51.1304 49.7556C51.2521 49.8165 51.4346 49.8895 51.7175 49.9746L59.0722 52.1068C59.9117 52.3563 60.9885 52.7699 61.834 53.6672C62.7465 54.6405 63.1146 55.8876 63.1146 57.2351C63.1146 60.4805 60.2067 62.6067 57.2959 62.6067H57.0312V63.875C57.0312 64.4801 56.7909 65.0603 56.3631 65.4881C55.9353 65.9159 55.355 66.1563 54.75 66.1563C54.145 66.1563 53.5647 65.9159 53.1369 65.4881C52.7091 65.0603 52.4688 64.4801 52.4688 63.875V62.6036C49.345 62.488 46.3854 60.1855 46.3854 56.7788C46.3854 56.1738 46.6258 55.5936 47.0536 55.1657C47.4814 54.7379 48.0616 54.4976 48.6667 54.4976C49.2717 54.4976 49.8519 54.7379 50.2798 55.1657C50.7076 55.5936 50.9479 56.1738 50.9479 56.7788C50.9479 57.2108 51.4407 58.0442 52.7151 58.0442H57.2959C57.6594 58.0539 58.0145 57.9331 58.2966 57.7035C58.5034 57.521 58.5521 57.3476 58.5521 57.2351C58.5567 57.0821 58.5383 56.9293 58.4973 56.7819C58.457 56.752 58.4143 56.7256 58.3696 56.7028C58.2479 56.642 58.0654 56.569 57.7825 56.4838L50.4278 54.3516C49.5883 54.1022 48.5115 53.6885 47.666 52.7912C46.7535 51.8179 46.3854 50.5708 46.3854 49.2233C46.3854 45.9779 49.2932 43.8517 52.2041 43.8517H52.4688V42.5834C52.4688 41.9783 52.7091 41.3981 53.1369 40.9703C53.5647 40.5425 54.145 40.3021 54.75 40.3021ZM19.0104 33.4584C19.0104 32.8533 19.2508 32.2731 19.6786 31.8453C20.1064 31.4175 20.6866 31.1771 21.2917 31.1771H22.8125C23.4175 31.1771 23.9978 31.4175 24.4256 31.8453C24.8534 32.2731 25.0937 32.8533 25.0937 33.4584C25.0937 34.0634 24.8534 34.6436 24.4256 35.0715C23.9978 35.4993 23.4175 35.7396 22.8125 35.7396H21.2917C20.6866 35.7396 20.1064 35.4993 19.6786 35.0715C19.2508 34.6436 19.0104 34.0634 19.0104 33.4584ZM28.1354 33.4584C28.1354 32.8533 28.3758 32.2731 28.8036 31.8453C29.2314 31.4175 29.8116 31.1771 30.4167 31.1771H45.625C46.23 31.1771 46.8103 31.4175 47.2381 31.8453C47.6659 32.2731 47.9062 32.8533 47.9062 33.4584C47.9062 34.0634 47.6659 34.6436 47.2381 35.0715C46.8103 35.4993 46.23 35.7396 45.625 35.7396H30.4167C29.8116 35.7396 29.2314 35.4993 28.8036 35.0715C28.3758 34.6436 28.1354 34.0634 28.1354 33.4584ZM19.0104 42.5834C19.0104 41.9783 19.2508 41.3981 19.6786 40.9703C20.1064 40.5425 20.6866 40.3021 21.2917 40.3021H22.8125C23.4175 40.3021 23.9978 40.5425 24.4256 40.9703C24.8534 41.3981 25.0937 41.9783 25.0937 42.5834C25.0937 43.1884 24.8534 43.7686 24.4256 44.1965C23.9978 44.6243 23.4175 44.8646 22.8125 44.8646H21.2917C20.6866 44.8646 20.1064 44.6243 19.6786 44.1965C19.2508 43.7686 19.0104 43.1884 19.0104 42.5834ZM28.1354 42.5834C28.1354 41.9783 28.3758 41.3981 28.8036 40.9703C29.2314 40.5425 29.8116 40.3021 30.4167 40.3021H41.0625C41.6675 40.3021 42.2478 40.5425 42.6756 40.9703C43.1034 41.3981 43.3437 41.9783 43.3437 42.5834C43.3437 43.1884 43.1034 43.7686 42.6756 44.1965C42.2478 44.6243 41.6675 44.8646 41.0625 44.8646H30.4167C29.8116 44.8646 29.2314 44.6243 28.8036 44.1965C28.3758 43.7686 28.1354 43.1884 28.1354 42.5834ZM19.0104 51.7084C19.0104 51.1034 19.2508 50.5231 19.6786 50.0953C20.1064 49.6675 20.6866 49.4271 21.2917 49.4271H22.8125C23.4175 49.4271 23.9978 49.6675 24.4256 50.0953C24.8534 50.5231 25.0937 51.1034 25.0937 51.7084C25.0937 52.3134 24.8534 52.8936 24.4256 53.3215C23.9978 53.7493 23.4175 53.9896 22.8125 53.9896H21.2917C20.6866 53.9896 20.1064 53.7493 19.6786 53.3215C19.2508 52.8936 19.0104 52.3134 19.0104 51.7084ZM28.1354 51.7084C28.1354 51.1034 28.3758 50.5231 28.8036 50.0953C29.2314 49.6675 29.8116 49.4271 30.4167 49.4271H36.5C37.105 49.4271 37.6853 49.6675 38.1131 50.0953C38.5409 50.5231 38.7812 51.1034 38.7812 51.7084C38.7812 52.3134 38.5409 52.8936 38.1131 53.3215C37.6853 53.7493 37.105 53.9896 36.5 53.9896H30.4167C29.8116 53.9896 29.2314 53.7493 28.8036 53.3215C28.3758 52.8936 28.1354 52.3134 28.1354 51.7084ZM18.25 19.7709C18.25 18.3535 18.25 17.6447 18.4812 17.0851C18.7905 16.3413 19.3823 15.7506 20.1267 15.4426C20.6864 15.2084 21.3951 15.2084 22.8125 15.2084H44.1042C45.5216 15.2084 46.2303 15.2084 46.79 15.4395C47.5338 15.7489 48.1245 16.3407 48.4325 17.0851C48.6667 17.6447 48.6667 18.3535 48.6667 19.7709C48.6667 21.1883 48.6667 21.897 48.4355 22.4567C48.1261 23.2005 47.5343 23.7912 46.79 24.0992C46.2303 24.3334 45.5216 24.3334 44.1042 24.3334H22.8125C21.3951 24.3334 20.6864 24.3334 20.1267 24.1022C19.3829 23.7928 18.7922 23.201 18.4842 22.4567C18.25 21.897 18.25 21.1883 18.25 19.7709Z" fill="white"/>
</svg>
