<svg width="65" height="65" viewBox="0 0 65 65" fill="none" xmlns="http://www.w3.org/2000/svg">
<path d="M57.682 18.9447C57.8055 14.9644 56.3455 11.0975 53.6222 8.19191C50.8989 5.28635 47.1345 3.57926 43.1545 3.44495C41.1203 3.4638 39.1143 3.92314 37.2745 4.79135C35.4348 5.65956 33.805 6.91603 32.4972 8.47432C31.1913 6.91534 29.5626 5.65831 27.7235 4.79C25.8845 3.92169 23.879 3.46278 21.8454 3.44495C17.8648 3.57713 14.0995 5.28366 11.3762 8.18978C8.65287 11.0959 7.19422 14.964 7.32056 18.9447C7.70704 24.9006 9.73978 30.6322 13.1922 35.5008C13.5832 36.0479 13.8282 36.6858 13.9041 37.354C13.9799 38.0222 13.884 38.6987 13.6256 39.3195C12.0065 43.305 11.1813 47.5682 11.1962 51.87V56.7125C11.2261 57.9766 11.7493 59.1789 12.6539 60.0624C13.5585 60.9458 14.7729 61.4404 16.0373 61.4404C17.3018 61.4404 18.5161 60.9458 19.4208 60.0624C20.3254 59.1789 20.8486 57.9766 20.8785 56.7125C20.7277 53.6007 21.7897 50.5518 23.8409 48.2071C25.8922 45.8624 28.7729 44.4046 31.877 44.1404C33.5362 44.053 35.1949 44.3211 36.7421 44.9265C38.2894 45.532 39.6894 46.461 40.8487 47.6512C42.0079 48.8415 42.8995 50.2656 43.464 51.8283C44.0284 53.3909 44.2525 55.0562 44.1214 56.7125C44.1214 57.9968 44.6316 59.2285 45.5397 60.1366C46.4479 61.0448 47.6796 61.555 48.9639 61.555C50.2482 61.555 51.4799 61.0448 52.3881 60.1366C53.2962 59.2285 53.8064 57.9968 53.8064 56.7125V51.8564C53.8291 47.2836 52.8946 42.7566 51.0629 38.5666C50.7505 37.9324 50.6138 37.226 50.6672 36.521C50.7205 35.8161 50.9619 35.1383 51.3662 34.5583C54.9502 30.082 57.1476 24.6541 57.682 18.9447Z" stroke="white" stroke-width="4.0625" stroke-linecap="round" stroke-linejoin="round"/>
<path d="M52.1787 33.4858H39.8558V22.7527H24.9653V33.4858H11.8489" stroke="white" stroke-width="4.0625" stroke-linecap="round" stroke-linejoin="round"/>
</svg>
