<svg width="74" height="74" viewBox="0 0 74 74" fill="none" xmlns="http://www.w3.org/2000/svg">
<path d="M30.8333 15.4167L37 9.25M24.6667 49.3333L49.3333 24.6667M37 64.75L43.1667 58.5833M50.875 58.5833C52.9194 58.5833 54.88 57.7712 56.3256 56.3256C57.7712 54.88 58.5833 52.9194 58.5833 50.875C58.5833 48.8306 57.7712 46.87 56.3256 45.4244C54.88 43.9788 52.9194 43.1667 50.875 43.1667C48.8306 43.1667 46.87 43.9788 45.4244 45.4244C43.9788 46.87 43.1667 48.8306 43.1667 50.875C43.1667 52.9194 43.9788 54.88 45.4244 56.3256C46.87 57.7712 48.8306 58.5833 50.875 58.5833ZM23.125 30.8333C25.1694 30.8333 27.13 30.0212 28.5756 28.5756C30.0212 27.13 30.8333 25.1694 30.8333 23.125C30.8333 21.0806 30.0212 19.12 28.5756 17.6744C27.13 16.2288 25.1694 15.4167 23.125 15.4167C21.0806 15.4167 19.12 16.2288 17.6744 17.6744C16.2288 19.12 15.4167 21.0806 15.4167 23.125C15.4167 25.1694 16.2288 27.13 17.6744 28.5756C19.12 30.0212 21.0806 30.8333 23.125 30.8333ZM16.9583 64.75C19.0027 64.75 20.9634 63.9379 22.4089 62.4923C23.8545 61.0467 24.6667 59.086 24.6667 57.0417C24.6667 54.9973 23.8545 53.0366 22.4089 51.5911C20.9634 50.1455 19.0027 49.3333 16.9583 49.3333C14.914 49.3333 12.9533 50.1455 11.5077 51.5911C10.0621 53.0366 9.25 54.9973 9.25 57.0417C9.25 59.086 10.0621 61.0467 11.5077 62.4923C12.9533 63.9379 14.914 64.75 16.9583 64.75ZM57.0417 24.6667C59.086 24.6667 61.0467 23.8545 62.4923 22.4089C63.9379 20.9634 64.75 19.0027 64.75 16.9583C64.75 14.914 63.9379 12.9533 62.4923 11.5077C61.0467 10.0621 59.086 9.25 57.0417 9.25C54.9973 9.25 53.0366 10.0621 51.5911 11.5077C50.1455 12.9533 49.3333 14.914 49.3333 16.9583C49.3333 19.0027 50.1455 20.9634 51.5911 22.4089C53.0366 23.8545 54.9973 24.6667 57.0417 24.6667Z" stroke="#276F71" stroke-width="6.16667" stroke-linecap="round" stroke-linejoin="round"/>
</svg>
